<?xml version="1.0" standalone="no"?>
<!DOCTYPE svg PUBLIC "-//W3C//DTD SVG 20010904//EN"
 "http://www.w3.org/TR/2001/REC-SVG-20010904/DTD/svg10.dtd">
<svg version="1.0" xmlns="http://www.w3.org/2000/svg"
 width="302.000000pt" height="302.000000pt" viewBox="0 0 302.000000 302.000000"
 preserveAspectRatio="xMidYMid meet">
<metadata>
Created by potrace 1.14, written by Peter Selinger 2001-2017
</metadata>
<g transform="translate(0.000000,302.000000) scale(0.100000,-0.100000)"
fill="#000000" stroke="none">
<path d="M1515 3008 c-367 -28 -681 -311 -751 -675 -11 -59 -14 -181 -14 -569
0 -475 -1 -497 -21 -557 -11 -34 -24 -66 -29 -72 -4 -5 -29 -61 -54 -122 -91
-222 -97 -302 -32 -410 20 -33 114 -82 183 -98 18 -3 33 -12 33 -18 0 -18 92
-156 140 -210 97 -109 262 -207 416 -248 111 -29 306 -30 419 0 322 84 569
350 625 671 8 45 10 307 8 850 l-3 785 -33 95 c-101 291 -331 500 -622 564
-86 19 -156 23 -265 14z m247 -43 c337 -79 573 -324 638 -662 8 -41 10 -291 8
-848 l-3 -790 -27 -73 c-15 -40 -42 -100 -60 -133 -32 -58 -34 -60 -68 -55
-19 2 -27 2 -17 -1 15 -4 16 -7 5 -21 -12 -15 -11 -16 5 -3 11 9 17 10 17 2 0
-14 -149 -171 -162 -171 -5 0 -6 4 -3 10 3 6 -1 7 -10 3 -11 -4 -13 -8 -5 -13
10 -6 -38 -44 -100 -78 -48 -27 -173 -71 -216 -78 l-44 -6 0 34 c0 19 3 82 6
140 l7 106 41 4 c63 8 119 38 136 75 14 31 18 33 71 33 64 0 129 -23 129 -45
0 -11 12 -15 48 -15 l47 0 -1 175 -2 175 23 0 c22 0 23 3 29 138 3 75 9 228
12 340 6 182 5 202 -10 202 -9 0 -16 6 -16 14 0 8 -7 16 -15 20 -22 8 1 51 40
75 35 20 91 109 101 159 5 22 0 41 -16 66 -12 20 -26 36 -31 36 -5 0 -14 11
-19 25 -5 14 -14 25 -20 25 -5 0 -10 11 -10 25 0 24 -2 25 -72 25 -40 0 -82 3
-94 6 -16 4 -25 -4 -48 -45 -15 -28 -32 -49 -37 -45 -5 3 -7 8 -5 12 2 4 -39
5 -93 2 l-96 -5 0 37 c0 21 5 40 12 42 20 8 16 36 -17 129 -16 47 -30 91 -30
97 0 7 17 10 48 9 46 -3 47 -3 47 26 0 28 -2 30 -40 30 l-40 0 -6 71 c-11 123
-83 224 -188 264 -31 12 -64 26 -73 31 -23 12 -65 12 -73 -1 -3 -5 -18 -10
-33 -10 -79 -1 -195 -99 -231 -195 -12 -31 -21 -76 -21 -102 l0 -46 -45 5
c-42 5 -45 4 -45 -19 0 -16 -4 -22 -12 -17 -7 4 -8 3 -4 -4 4 -7 24 -12 44
-12 20 0 42 -4 47 -8 6 -4 10 -45 10 -92 0 -61 7 -105 24 -157 24 -75 23 -123
-4 -123 -8 0 -20 -10 -26 -22 -18 -34 -101 -139 -106 -134 -3 2 -46 -21 -96
-53 -88 -55 -94 -60 -140 -141 l-48 -85 3 495 4 495 32 98 c18 54 37 95 42 92
6 -3 7 0 5 7 -7 18 70 144 85 140 6 -1 9 2 6 6 -3 5 8 26 26 46 26 31 33 34
47 24 14 -11 14 -11 4 2 -10 13 -7 21 15 41 89 84 256 169 381 194 91 18 256
18 333 0z m-493 -841 l31 -7 -25 -23 c-29 -26 -32 -64 -11 -115 7 -19 16 -52
20 -75 5 -36 3 -42 -18 -52 -23 -10 -25 -8 -41 36 -19 54 -31 177 -21 216 7
27 14 30 65 20z m196 -45 c5 -6 4 -9 -3 -9 -7 0 -21 -14 -32 -32 -17 -28 -20
-30 -25 -12 -3 10 -13 32 -21 47 l-14 29 42 -7 c24 -4 47 -11 53 -16z m-105
-9 c11 -11 20 -30 20 -42 1 -55 39 -59 66 -7 28 54 48 60 144 39 47 -10 110
-23 142 -30 53 -10 57 -14 72 -51 28 -69 19 -89 -40 -89 -13 0 -24 -4 -24 -10
0 -16 -90 -63 -148 -76 -35 -8 -65 -23 -81 -40 -22 -22 -23 -25 -6 -18 18 7
265 23 274 17 3 -2 0 -20 -5 -41 -8 -34 -13 -38 -59 -48 -66 -16 -173 -17
-216 -3 -19 7 -54 30 -78 53 -38 35 -41 36 -24 11 42 -61 80 -82 157 -86 43
-3 46 -4 46 -31 0 -26 -3 -28 -37 -28 -66 1 -111 17 -216 75 -56 31 -105 60
-109 63 -11 11 12 102 25 102 7 0 25 12 41 26 23 21 26 28 15 35 -8 4 -14 16
-14 26 -1 10 -9 44 -20 75 -18 56 -18 58 0 78 23 25 49 26 75 0z m880 -229 c0
-8 -55 -21 -92 -21 -10 0 -18 7 -18 15 0 12 13 15 55 15 30 0 55 -4 55 -9z
m-130 -16 c0 -8 -7 -15 -15 -15 -16 0 -20 12 -8 23 11 12 23 8 23 -8z m160
-24 c0 -4 -27 -11 -59 -14 -33 -4 -78 -9 -100 -13 -25 -4 -41 -3 -41 4 0 5 30
14 68 19 90 14 132 15 132 4z m-236 -46 c17 -13 47 -31 66 -39 24 -11 29 -15
15 -16 -20 0 -59 22 -105 59 -36 29 -15 26 24 -4z m-129 -5 c90 0 98 -5 83
-53 -9 -29 -8 -52 1 -100 24 -111 25 -136 7 -143 -9 -3 -16 -15 -16 -25 0 -10
-4 -19 -9 -19 -26 0 -54 -113 -34 -134 17 -17 -9 -156 -29 -156 -4 0 -46 19
-93 42 l-85 42 0 103 c0 158 -31 262 -82 279 -11 3 -18 15 -18 30 0 20 5 24
30 24 16 0 52 5 79 11 52 11 55 14 67 82 5 28 10 35 17 28 6 -6 43 -11 82 -11z
m307 0 c-14 -14 -35 -20 -64 -20 -53 0 -84 16 -47 24 38 8 71 13 103 15 l30 1
-22 -20z m88 12 c0 -5 -11 -14 -24 -20 -14 -6 -35 -25 -47 -41 -13 -17 -31
-31 -41 -31 -26 0 -22 12 15 47 39 39 97 65 97 45z m40 -66 c-1 -51 -48 -121
-123 -183 -18 -14 -27 -31 -27 -50 l0 -28 -81 3 c-67 3 -80 6 -75 19 3 8 6 19
6 24 0 5 9 9 20 9 18 0 18 1 -4 23 -28 28 -50 115 -42 162 8 40 11 41 51 16
43 -27 75 -59 75 -76 0 -8 5 -15 10 -15 16 0 11 26 -11 54 -11 14 -16 26 -10
26 6 0 11 -4 11 -10 0 -5 11 -12 24 -16 17 -4 22 -11 19 -25 -8 -29 59 -27 87
3 24 26 26 40 5 32 -8 -4 -15 -9 -15 -13 0 -11 -49 -31 -54 -23 -7 11 64 93
88 102 26 10 46 -5 46 -34z m-1074 -194 c44 -22 97 -44 118 -47 36 -7 37 -8
19 -27 -18 -20 -17 -21 17 -46 62 -45 157 -149 179 -195 12 -24 28 -75 36
-113 19 -91 46 -367 37 -375 -25 -22 -182 -31 -182 -9 0 4 -20 15 -45 26 -25
10 -45 25 -45 33 0 38 -61 66 -87 40 -7 -7 -37 -4 -99 12 -137 33 -193 49
-198 57 -3 5 11 46 31 93 42 99 54 169 29 169 -11 0 -16 -9 -16 -29 0 -16 -13
-58 -29 -94 -56 -125 -76 -216 -39 -179 8 8 18 7 38 -3 16 -8 47 -17 71 -21
71 -9 189 -46 189 -58 0 -6 -7 -44 -17 -84 -10 -45 -13 -76 -7 -81 5 -6 27
-11 48 -13 l40 -3 19 78 c11 43 21 76 24 74 5 -6 -47 -239 -56 -249 -6 -7
-293 23 -386 41 -148 28 -262 66 -298 99 -10 9 -28 37 -39 61 -36 79 -17 175
74 393 14 31 29 63 35 70 6 7 15 27 18 43 4 17 33 77 64 135 31 58 62 117 70
133 18 35 92 89 172 125 l64 29 36 -23 c19 -12 71 -40 115 -62z m867 -81 c51
-1 87 -5 87 -11 0 -6 -43 -10 -110 -10 -60 0 -110 4 -110 8 0 14 10 20 28 17
9 -2 56 -4 105 -4z m-96 -47 c-3 -3 -12 -4 -19 -1 -8 3 -5 6 6 6 11 1 17 -2
13 -5z m199 -26 c-3 -13 -8 -148 -12 -300 l-6 -278 -27 0 c-43 0 -342 19 -403
26 l-58 6 0 179 c0 98 2 179 5 179 3 0 41 -18 84 -39 l78 -40 -9 -67 c-5 -36
-7 -73 -4 -80 11 -30 24 -12 30 44 9 78 34 150 56 162 15 8 17 15 10 41 -5 17
-7 43 -4 58 6 26 7 27 74 23 59 -4 71 -1 90 18 27 27 23 61 -10 77 -23 11 -18
13 43 13 65 0 67 -1 63 -22z m-111 -33 c0 -18 -8 -20 -82 -23 l-83 -3 0 26 0
26 83 -3 c74 -3 82 -5 82 -23z m-755 -557 c0 -7 -7 -50 -16 -95 -15 -76 -19
-83 -40 -83 -29 0 -29 10 -9 100 21 88 22 90 45 90 11 0 20 -6 20 -12z m673
-14 c81 -4 147 -10 147 -13 0 -4 -17 -5 -39 -3 -31 3 -39 0 -43 -15 -7 -26
-81 -46 -149 -40 -30 2 -93 10 -141 17 -88 14 -88 14 -88 43 l0 30 83 -6 c45
-4 148 -9 230 -13z m137 -189 c0 -138 -1 -145 -20 -145 -19 0 -20 7 -20 145 0
138 1 145 20 145 19 0 20 -7 20 -145z m-731 126 c11 -7 11 -24 -3 -104 -9 -52
-16 -97 -16 -101 0 -3 -12 -6 -26 -6 -25 0 -26 2 -21 38 12 72 39 182 46 182
3 0 12 -4 20 -9z m388 -22 c102 -18 72 -49 -46 -49 -39 0 -71 -2 -71 -5 0 -4
7 -20 16 -38 24 -48 73 -95 112 -108 25 -8 31 -14 21 -20 -21 -13 -66 -11
-106 6 -51 22 -53 11 -3 -15 29 -15 56 -21 81 -18 42 4 50 -5 20 -22 -32 -17
-74 -12 -127 15 -61 31 -63 31 -34 0 13 -14 29 -25 36 -25 7 0 16 -4 19 -10
16 -26 -40 -6 -77 28 -24 21 -39 30 -35 20 10 -28 -2 -21 -44 26 -33 36 -47
44 -85 49 -25 2 -48 7 -51 11 -3 3 -1 37 6 76 l13 70 66 -1 c37 0 81 4 97 9
41 14 116 14 192 1z m181 -84 c5 -96 0 -105 -56 -105 -82 0 -148 25 -177 68
-14 20 -25 39 -25 42 0 3 20 4 45 2 53 -5 101 12 116 40 8 15 19 18 52 16 l42
-3 3 -60z m-1066 -110 c43 -8 142 -22 220 -30 79 -9 155 -18 170 -21 20 -5 27
-2 30 12 3 15 15 17 96 17 l92 -1 44 -40 c24 -22 53 -43 65 -47 20 -6 21 -12
21 -161 0 -144 -1 -154 -19 -154 -10 0 -33 -3 -50 -6 l-31 -6 0 106 c0 64 4
106 10 106 6 0 10 30 10 70 l0 70 -245 0 -245 0 0 -70 c0 -40 4 -70 10 -70 6
0 10 -13 10 -30 0 -16 -4 -30 -9 -30 -21 0 -183 165 -220 225 -37 59 -46 75
-38 75 1 0 37 -7 79 -15z m628 -155 c0 -31 -4 -40 -17 -41 -10 0 -27 -2 -38
-5 -60 -12 -202 -13 -282 -3 l-93 12 0 36 0 36 215 2 215 2 0 -39z m-23 -276
c-8 -8 -184 27 -242 48 -101 36 -145 66 -144 96 0 15 3 21 6 14 4 -10 8 -10
19 -1 8 6 23 9 33 6 11 -3 22 0 24 6 2 6 45 12 103 14 54 2 122 7 149 11 l50
7 3 -99 c1 -54 1 -100 -1 -102z m-314 189 c-7 -2 -21 -2 -30 0 -10 3 -4 5 12
5 17 0 24 -2 18 -5z"/>
<path d="M1845 2739 c-11 -16 -1 -19 13 -3 7 8 8 14 3 14 -5 0 -13 -5 -16 -11z"/>
<path d="M1610 2719 c0 -5 5 -7 10 -4 6 3 10 8 10 11 0 2 -4 4 -10 4 -5 0 -10
-5 -10 -11z"/>
<path d="M1897 2723 c-11 -11 -8 -21 9 -27 13 -5 14 -4 6 7 -7 8 -9 17 -5 20
3 4 4 7 1 7 -2 0 -8 -3 -11 -7z"/>
<path d="M1568 2708 c5 -5 16 -8 23 -6 8 3 3 7 -10 11 -17 4 -21 3 -13 -5z"/>
<path d="M1996 2689 c3 -5 12 -9 21 -9 19 0 9 13 -12 16 -8 1 -13 -2 -9 -7z"/>
<path d="M2070 2669 c18 -15 41 -40 51 -56 37 -55 15 -147 -43 -183 -37 -22
-106 -27 -141 -9 -20 10 -21 10 -6 -5 23 -24 96 -23 146 3 93 47 96 208 5 250
-13 6 -21 15 -18 19 3 5 -2 9 -11 9 -11 0 -6 -9 17 -28z"/>
<path d="M1998 2643 c17 -17 32 -39 33 -50 0 -11 3 -13 6 -5 7 17 -21 58 -49
73 -16 9 -13 3 10 -18z"/>
<path d="M930 2610 c0 -5 4 -10 9 -10 6 0 13 5 16 10 3 6 -1 10 -9 10 -9 0
-16 -4 -16 -10z"/>
<path d="M2030 2546 c0 -13 -12 -35 -27 -50 -14 -14 -24 -29 -21 -32 10 -10
58 58 58 82 0 13 -2 24 -5 24 -3 0 -5 -11 -5 -24z"/>
<path d="M1765 2540 c-4 -6 -3 -16 3 -22 6 -6 12 -6 17 2 4 6 3 16 -3 22 -6 6
-12 6 -17 -2z"/>
<path d="M1185 2499 c-10 -15 1 -23 20 -15 9 3 13 10 10 16 -8 13 -22 13 -30
-1z"/>
<path d="M2247 2369 c3 -11 12 -19 20 -17 20 4 18 21 -5 29 -16 6 -19 4 -15
-12z"/>
<path d="M1930 2260 c0 -5 7 -10 15 -10 8 0 15 -7 15 -16 0 -8 5 -12 11 -9 7
5 4 14 -7 26 -19 21 -34 25 -34 9z"/>
<path d="M2137 2078 c-7 -4 24 -8 68 -10 75 -3 80 -4 86 -28 6 -22 7 -23 8 -4
1 12 -5 26 -11 32 -15 12 -135 20 -151 10z"/>
<path d="M2113 2040 c0 -24 2 -26 14 -14 12 12 12 16 0 28 -12 12 -14 10 -14
-14z"/>
<path d="M2057 1998 c-20 -12 -5 -13 88 -7 84 5 78 7 -38 12 -22 1 -44 -1 -50
-5z"/>
<path d="M2246 2001 c-4 -5 1 -8 9 -7 21 3 31 16 12 16 -9 0 -18 -4 -21 -9z"/>
<path d="M2025 1969 c3 -39 31 -59 84 -59 29 0 51 -5 53 -12 3 -7 7 -6 11 5 6
15 -1 17 -51 17 -60 0 -82 11 -82 41 0 10 -4 20 -8 23 -5 3 -8 -4 -7 -15z"/>
<path d="M2212 1964 c-7 -8 -8 -14 -3 -14 10 0 25 19 20 25 -2 1 -10 -3 -17
-11z"/>
<path d="M2238 1943 c6 -2 12 -11 12 -19 0 -8 5 -14 10 -14 7 0 7 6 0 20 -6
11 -16 20 -23 19 -9 0 -9 -2 1 -6z"/>
<path d="M995 1860 c-3 -6 1 -7 9 -4 18 7 21 14 7 14 -6 0 -13 -4 -16 -10z"/>
<path d="M1031 1844 c0 -11 3 -14 6 -6 3 7 2 16 -1 19 -3 4 -6 -2 -5 -13z"/>
<path d="M820 1615 c0 -8 7 -15 15 -15 8 0 15 7 15 15 0 8 -7 15 -15 15 -8 0
-15 -7 -15 -15z"/>
<path d="M2350 1565 c0 -10 7 -15 18 -13 21 4 19 22 -2 26 -10 2 -16 -3 -16
-13z"/>
<path d="M2350 730 c-21 -7 -21 -8 -5 -9 11 0 27 4 35 9 18 11 5 11 -30 0z"/>
<path d="M2295 720 c-3 -5 1 -10 10 -10 9 0 13 5 10 10 -3 6 -8 10 -10 10 -2
0 -7 -4 -10 -10z"/>
<path d="M2258 703 c7 -3 16 -2 19 1 4 3 -2 6 -13 5 -11 0 -14 -3 -6 -6z"/>
<path d="M1303 2063 c-24 -9 -13 -20 15 -15 22 3 31 -1 39 -20 7 -12 12 -17
12 -10 2 38 -30 60 -66 45z"/>
<path d="M1405 1970 c-3 -5 1 -10 9 -10 8 0 18 5 21 10 3 6 -1 10 -9 10 -8 0
-18 -4 -21 -10z"/>
<path d="M1711 1544 c0 -11 3 -14 6 -6 3 7 2 16 -1 19 -3 4 -6 -2 -5 -13z"/>
<path d="M1794 1369 c0 -10 4 -19 8 -19 4 0 8 6 8 14 0 8 -4 17 -8 20 -4 2 -8
-4 -8 -15z"/>
<path d="M940 1463 c0 -5 23 -23 50 -41 46 -32 92 -90 121 -154 13 -29 29 -37
29 -15 0 7 -16 45 -35 85 -28 59 -43 77 -82 102 -44 28 -83 39 -83 23z"/>
<path d="M1395 285 c0 -13 3 -21 8 -18 4 2 7 10 7 18 0 8 -3 16 -7 18 -5 3 -8
-5 -8 -18z"/>
<path d="M1320 270 c0 -5 5 -10 10 -10 6 0 10 5 10 10 0 6 -4 10 -10 10 -5 0
-10 -4 -10 -10z"/>
<path d="M1250 116 c7 -7 13 -7 20 0 6 6 3 10 -10 10 -13 0 -16 -4 -10 -10z"/>
</g>
</svg>
